<svg class="circle-logo" xmlns="http://www.w3.org/2000/svg" viewBox="0 0 200 241.68">
      <path fill="#f67b45" d="M3.28 185.58c7.42-2.23 14.72-4.73 22.21-7.58 33.82-12.92 64-31.42 90.19-57.11 9.68-9.49 13.31-12.49 27.13-31.28s30.54-32.15 41.65-31.83a16.34 16.34 0 0 1 4.76.86q2 3.74 3.77 7.69c15.93 35.76 3.16 83.84-22.63 96.57-34.92 17.24-56.76 4-81.27 22.43S34.7 263.91 17.73 233c-6.36-11.62-11.4-28.28-14.45-47.42zM122 78.36a235.5 235.5 0 0 1-22.71 25.89C70.14 132.88 38.86 150.39.64 162.08c-4-59.55 10.49-131.35 59.19-154.32 24.72-11.66 54-9.77 79.72 2.85 7.37 18.14 1.8 43.35-17.66 67.65"></path>
    </svg>